# xmcd
#
# Track frame offsets:
#	150
#	19568
#	38288
#	52284
#	73103
#	86578
#	110393
#	122718
#	135799
#	151619
#
# Disc length: 2243 seconds
# Revision: 0
# Processed by: cddbd v1.5.2PL0 Copyright (c) Steve Scherf et al.
# Submitted via: dBpowerAMP V12.0
#
DISCID=7108c10a
DTITLE=Bobby Bare - Biggest Hits [Columbia] (L)
DYEAR=1982
DGENRE=Country
TTITLE0=Tequila Shiela
TTITLE1=Till I Gain Control Again
TTITLE2=Learning To Live Again
TTITLE3=Let Him Roll
TTITLE4=Greasy Grit Gravy
TTITLE5=Numbers
TTITLE6=Take Me As I Am (Or Let Me Go)
TTITLE7=Big Dupree
TTITLE8=New Cut Road
TTITLE9=Goin' Back To Texas
EXTD=
EXTT0=
EXTT1=
EXTT2=
EXTT3=
EXTT4=
EXTT5=
EXTT6=
EXTT7=
EXTT8=
EXTT9=
PLAYORDER=
